# xmcd
#
# Track frame offsets: 
#        150
#        18162
#        45502
#        66280
#        81385
#        105697
#        119272
#        131312
#        153225
#        166377
#
# Disc length: 2441 seconds
#
# Revision: 0
# Processed by: cddbd v1.5.2PL0 Copyright (c) Steve Scherf et al.
# Submitted via: ExactAudioCopy v1.0b3
#
DISCID=7709870a
DTITLE=Marvin Gaye - Collections
DYEAR=2005
DGENRE=R&B
TTITLE0=Sexual Healing
TTITLE1=Rockin' After Midnight
TTITLE2=Third World Girl
TTITLE3=Savage In The Sack
TTITLE4=Sanctified Lady
TTITLE5=The Shadow Of Your Smile
TTITLE6=I Live For You
TTITLE7=Ain't It Funny  (How Things Turn Around)
TTITLE8=Walkin' In The Rain
TTITLE9=Stranger In My Life
EXTD=
EXTT0=
EXTT1=
EXTT2=
EXTT3=
EXTT4=
EXTT5=
EXTT6=
EXTT7=
EXTT8=
EXTT9=
PLAYORDER=
